<svg width="658" height="149" viewBox="201 353 658 149" fill="none" xmlns="http://www.w3.org/2000/svg">
<g clip-path="url(#clip0_1_3)">
<path d="M301.999 376.439H329.276V488.231H301.999L300.769 474.369C297.713 479.362 293.652 483.424 288.584 486.554C283.59 489.61 277.665 491.138 270.809 491.138C262.536 491.138 254.785 489.572 247.556 486.442C240.327 483.312 233.955 478.989 228.44 473.474C222.999 467.959 218.714 461.587 215.583 454.358C212.528 447.129 211 439.378 211 431.105C211 423.131 212.453 415.641 215.36 408.635C218.341 401.629 222.477 395.481 227.769 390.189C233.06 384.898 239.172 380.761 246.103 377.78C253.034 374.799 260.487 373.309 268.461 373.309C275.839 373.309 282.435 374.948 288.248 378.227C294.136 381.507 299.13 385.68 303.229 390.748L301.999 376.439ZM270.138 464.866C275.951 464.866 281.094 463.413 285.565 460.507C290.037 457.6 293.54 453.687 296.074 448.768C298.608 443.775 299.875 438.297 299.875 432.335C299.875 426.298 298.608 420.82 296.074 415.901C293.54 410.908 290 406.958 285.454 404.051C280.982 401.145 275.877 399.692 270.138 399.692C264.399 399.692 259.145 401.182 254.375 404.163C249.68 407.07 245.916 410.983 243.084 415.901C240.327 420.82 238.948 426.298 238.948 432.335C238.948 438.372 240.364 443.849 243.196 448.768C246.028 453.687 249.792 457.6 254.487 460.507C259.257 463.413 264.474 464.866 270.138 464.866Z" fill="#003865"/>
<path d="M347.081 446.868V376.439H374.358V439.713C374.358 444.11 375.439 448.135 377.6 451.787C379.761 455.364 382.631 458.233 386.208 460.395C389.86 462.482 393.847 463.525 398.17 463.525C402.642 463.525 406.666 462.482 410.243 460.395C413.821 458.233 416.69 455.364 418.851 451.787C421.013 448.135 422.093 444.11 422.093 439.713V376.439H449.371L449.482 488.231H422.205L422.093 478.058C418.218 482.082 413.634 485.287 408.343 487.672C403.051 489.982 397.387 491.138 391.351 491.138C383.227 491.138 375.811 489.163 369.104 485.213C362.396 481.188 357.03 475.859 353.006 469.226C349.056 462.519 347.081 455.066 347.081 446.868Z" fill="#003865"/>
<path d="M471.972 488.231L471.86 376.439H499.137L499.249 386.388C503.05 382.364 507.596 379.196 512.888 376.886C518.179 374.501 523.881 373.309 529.992 373.309C534.091 373.309 538.19 373.905 542.289 375.097L531.557 402.598C528.725 401.48 525.893 400.921 523.061 400.921C518.664 400.921 514.639 402.002 510.987 404.163C507.41 406.25 504.541 409.119 502.379 412.771C500.293 416.349 499.249 420.336 499.249 424.733V488.231H471.972Z" fill="#003865"/>
<path d="M665.425 488.231L665.313 376.439H692.59L692.702 386.388C696.503 382.364 701.049 379.196 706.341 376.886C711.632 374.501 717.334 373.309 723.445 373.309C727.544 373.309 731.643 373.905 735.742 375.097L725.01 402.598C722.178 401.48 719.346 400.921 716.514 400.921C712.117 400.921 708.092 402.002 704.44 404.163C700.863 406.25 697.994 409.119 695.832 412.771C693.746 416.349 692.702 420.336 692.702 424.733V488.231H665.425Z" fill="#003865"/>
<path d="M792.232 491.138C781.947 491.138 772.557 488.492 764.06 483.2C755.639 477.909 748.894 470.791 743.826 461.848C738.833 452.905 736.336 443.03 736.336 432.223C736.336 424.1 737.789 416.498 740.696 409.417C743.603 402.263 747.59 396.002 752.658 390.636C757.8 385.196 763.762 380.948 770.544 377.892C777.326 374.836 784.556 373.309 792.232 373.309C800.952 373.309 808.926 375.172 816.156 378.898C823.459 382.55 829.645 387.581 834.713 393.99C839.781 400.4 843.47 407.703 845.781 415.901C848.091 424.1 848.613 432.67 847.346 441.614H765.626C766.669 445.787 768.383 449.551 770.768 452.905C773.153 456.184 776.171 458.83 779.823 460.842C783.475 462.78 787.611 463.786 792.232 463.86C797.002 463.935 801.325 462.817 805.2 460.507C809.15 458.122 812.429 454.917 815.038 450.892L842.874 457.376C838.328 467.289 831.546 475.412 822.528 481.747C813.51 488.007 803.411 491.138 792.232 491.138ZM764.731 421.156H819.733C818.913 416.684 817.162 412.659 814.479 409.082C811.87 405.43 808.628 402.524 804.753 400.362C800.877 398.201 796.704 397.12 792.232 397.12C787.76 397.12 783.624 398.201 779.823 400.362C776.022 402.449 772.78 405.318 770.097 408.97C767.489 412.548 765.7 416.609 764.731 421.156Z" fill="#003865"/>
<path d="M554.863 472.518L554.863 472.518C538.679 454.929 540.812 428.453 559.706 413.313C562.021 411.458 563.62 410.957 564.679 411.003C565.634 411.045 566.597 411.557 567.63 412.963C568.686 414.402 569.645 416.56 570.545 419.379C571.436 422.173 572.224 425.47 573.004 429.097C573.425 431.054 573.843 433.109 574.272 435.22C575.419 440.857 576.647 446.894 578.226 452.544C580.391 460.292 583.311 467.704 587.894 472.685C596.983 482.564 609.666 480.401 617.524 477.955C598.561 492.149 570.788 489.826 554.863 472.518Z" stroke="#003865" stroke-width="4"/>
<path d="M575.5 442C604.631 473.41 628.5 454 635 450.5C635 450.5 631.5 470.5 614 480" stroke="#003865" stroke-width="4"/>
<path d="M639.137 382.482L639.137 382.482C655.321 400.071 653.188 426.547 634.294 441.687C631.979 443.542 630.38 444.043 629.321 443.997C628.366 443.955 627.403 443.443 626.37 442.037C625.314 440.598 624.355 438.44 623.455 435.621C622.564 432.827 621.776 429.53 620.996 425.903C620.575 423.946 620.157 421.891 619.728 419.78C618.581 414.143 617.353 408.106 615.774 402.456C613.609 394.708 610.689 387.296 606.106 382.315C597.017 372.436 584.334 374.599 576.476 377.045C595.439 362.851 623.212 365.174 639.137 382.482Z" stroke="#003865" stroke-width="4"/>
<path d="M618.5 413C589.369 381.59 565.5 401 559 404.5C559 404.5 562.5 384.5 580 375" stroke="#003865" stroke-width="4"/>
</g>
<defs>
<clipPath id="clip0_1_3">
<rect width="1059" height="864" fill="white"/>
</clipPath>
</defs>
</svg>
