<svg width="150" height="150" viewBox="528 464 150 150" fill="none" xmlns="http://www.w3.org/2000/svg">
<path d="M650.05 541.593C642.892 564.987 614.159 514.426 589.09 507.747C564.02 501.067 552.107 540.798 559.265 517.403C566.423 494.009 592.549 480.459 617.618 487.139C642.688 493.818 657.208 518.198 650.05 541.593Z" fill="#50C878"/>
<path d="M640.153 559.127C619.987 574.547 627.242 517.719 610.717 498.901C594.192 480.083 560.145 506.401 580.311 490.98C600.476 475.56 630.22 478.314 646.744 497.132C663.269 515.95 660.318 543.706 640.153 559.127Z" fill="#1C57BC"/>
<path d="M552.992 539.766C560.626 516.503 588.322 567.565 613.251 574.689C638.179 581.813 650.901 542.301 643.267 565.564C635.633 588.827 609.236 601.91 584.307 594.787C559.378 587.663 545.358 563.029 552.992 539.766Z" fill="#FF4500"/>
<path d="M564.862 522.072C584.642 506.223 578.788 563.192 595.772 581.651C612.756 600.11 644.015 572.73 626.366 588.918C606.585 604.767 576.782 602.651 559.798 584.192C542.814 565.734 545.081 537.922 564.862 522.072Z" fill="#FFA500"/>
</svg>
